<svg width="691" height="749" viewBox="0 0 691 749" fill="none" xmlns="http://www.w3.org/2000/svg">
<mask id="mask0_341_618" style="mask-type:alpha" maskUnits="userSpaceOnUse" x="41" y="0" width="650" height="749">
<mask id="path-1-outside-1_341_618" maskUnits="userSpaceOnUse" x="40.6406" y="0" width="650" height="749" fill="black">
<rect fill="white" x="40.6406" width="650" height="749"/>
<path d="M366.035 187.244L386.429 1L386.269 188.715L426.739 6.88334L406.345 193.128L466.253 18.4662L425.783 200.482L504.173 35.7485L444.106 210.41L539.863 58.3625L461.313 223.096L572.684 86.1246L477.087 237.988L602.479 118.299L490.949 255.087L628.45 154.518L502.898 274.207L650.278 194.231L512.777 294.799L667.645 236.701L520.265 316.678L680.232 281.378L525.364 339.476L687.879 327.525L527.913 362.641L690.429 374.408L527.913 386.175L687.879 421.291L525.364 409.524L680.232 467.438L520.265 432.322L667.645 512.299L512.777 454.201L650.278 554.769L502.898 474.793L628.45 594.482L490.949 493.73L602.479 630.701L477.087 510.828L572.684 662.876L461.313 525.904L539.863 690.454L444.106 538.406L504.173 713.068L425.783 548.518L466.253 730.35L406.345 555.688L426.739 742.117L386.269 560.101L386.429 748L366.035 561.572L345.64 748L345.64 560.101L305.171 742.117L325.724 555.688L265.817 730.35L306.286 548.518L227.896 713.068L287.963 538.406L192.207 690.454L270.756 525.904L159.225 662.876L254.982 510.828L129.59 630.701L241.121 493.73L103.62 594.482L229.171 474.793L81.7916 554.769L219.293 454.201L64.4247 512.299L211.804 432.322L51.8377 467.438L206.706 409.524L44.1899 421.291L204.156 386.175L41.6406 374.408L204.156 362.641L44.1899 327.525L206.706 339.476L51.8377 281.378L211.804 316.678L64.4247 236.701L219.293 294.799L81.7916 194.231L229.171 274.207L103.62 154.518L241.121 255.087L129.59 118.299L254.982 237.988L159.225 86.1246L270.756 223.096L192.207 58.3625L287.963 210.41L227.896 35.7485L306.286 200.482L265.817 18.4662L325.724 193.128L305.171 6.88334L345.64 188.715V1L366.035 187.244Z"/>
</mask>
<path d="M366.035 187.244L386.429 1L386.269 188.715L426.739 6.88334L406.345 193.128L466.253 18.4662L425.783 200.482L504.173 35.7485L444.106 210.41L539.863 58.3625L461.313 223.096L572.684 86.1246L477.087 237.988L602.479 118.299L490.949 255.087L628.45 154.518L502.898 274.207L650.278 194.231L512.777 294.799L667.645 236.701L520.265 316.678L680.232 281.378L525.364 339.476L687.879 327.525L527.913 362.641L690.429 374.408L527.913 386.175L687.879 421.291L525.364 409.524L680.232 467.438L520.265 432.322L667.645 512.299L512.777 454.201L650.278 554.769L502.898 474.793L628.45 594.482L490.949 493.73L602.479 630.701L477.087 510.828L572.684 662.876L461.313 525.904L539.863 690.454L444.106 538.406L504.173 713.068L425.783 548.518L466.253 730.35L406.345 555.688L426.739 742.117L386.269 560.101L386.429 748L366.035 561.572L345.64 748L345.64 560.101L305.171 742.117L325.724 555.688L265.817 730.35L306.286 548.518L227.896 713.068L287.963 538.406L192.207 690.454L270.756 525.904L159.225 662.876L254.982 510.828L129.59 630.701L241.121 493.73L103.62 594.482L229.171 474.793L81.7916 554.769L219.293 454.201L64.4247 512.299L211.804 432.322L51.8377 467.438L206.706 409.524L44.1899 421.291L204.156 386.175L41.6406 374.408L204.156 362.641L44.1899 327.525L206.706 339.476L51.8377 281.378L211.804 316.678L64.4247 236.701L219.293 294.799L81.7916 194.231L229.171 274.207L103.62 154.518L241.121 255.087L129.59 118.299L254.982 237.988L159.225 86.1246L270.756 223.096L192.207 58.3625L287.963 210.41L227.896 35.7485L306.286 200.482L265.817 18.4662L325.724 193.128L305.171 6.88334L345.64 188.715V1L366.035 187.244Z" stroke="black" stroke-width="2" stroke-miterlimit="10" mask="url(#path-1-outside-1_341_618)"/>
</mask>
<g mask="url(#mask0_341_618)">
<rect x="-784.426" y="-42.9404" width="1150.93" height="810.232" rx="45" fill="black"/>
</g>
<path d="M95.5563 542.917L141.188 571.625L95.5563 600.564L70.5938 653.139L45.6312 600.564L-0.000338522 571.625L45.6312 542.917L70.5938 490.111L95.5563 542.917Z" fill="#B9FF66"/>
<path d="M216.743 281.776L298.284 333.077L216.743 384.789L172.137 478.736L127.53 384.789L45.9897 333.077L127.53 281.776L172.137 187.417L216.743 281.776Z" fill="#191A23"/>
</svg>
