<svg width="376" height="747" viewBox="0 0 376 747" fill="none" xmlns="http://www.w3.org/2000/svg">
<path fill-rule="evenodd" clip-rule="evenodd" d="M371.547 183.404L373.533 183.509L376 168.281V162.028L373.294 178.73L372.546 183.35L372.29 178.677L363.001 9.13947L362.5 0L361.999 9.13947L352.71 178.677L352.454 183.35L351.706 178.73L324.634 11.6309L323.174 2.62155L323.638 11.7364L332.267 181.372L332.504 186.019L331.274 181.531L286.792 19.1767L284.4 10.4494L285.812 19.3876L312.256 186.775L312.974 191.32L311.286 187.039L249.998 31.6753L246.723 23.3737L249.047 31.99L292.961 194.806L294.14 199.178L292.025 195.175L214.763 48.9577L210.671 41.2131L213.852 49.3742L274.654 205.35L276.266 209.484L273.764 205.82L181.579 70.7897L176.75 63.717L180.72 71.3051L257.593 218.253L259.602 222.092L256.761 218.82L150.909 96.8741L145.437 90.5695L150.115 97.4842L242.016 233.329L244.382 236.826L241.256 233.988L123.188 126.854L117.17 121.394L122.47 127.553L228.14 250.362L230.821 253.478L227.462 251.107L98.8085 160.316L92.3481 155.757L98.18 161.097L216.154 269.11L219.108 271.815L215.573 269.933L78.121 196.797L71.3181 193.177L77.5937 197.649L206.223 289.31L209.408 291.579L205.749 290.199L61.4241 235.786L54.3757 233.128L61.009 236.698L198.482 310.677L201.857 312.493L198.125 311.621L48.9618 276.735L41.7587 275.05L48.668 277.693L193.034 332.915L196.561 334.264L192.803 333.897L40.9173 319.064L33.6441 318.354L40.7518 320.053L189.953 355.715L193.595 356.586L189.853 356.72L37.4098 362.172L30.146 362.432L37.3765 363.174L189.282 378.763L192.999 379.145L189.315 379.772L38.4917 405.443L31.3134 406.665L38.5915 406.441L191.028 401.74L194.784 401.624L191.195 402.736L44.148 448.26L37.13 450.433L44.3784 449.236L195.171 424.329L198.922 423.709L195.466 425.294L54.2953 490.012L47.514 493.121L54.6508 490.949L201.655 446.216L205.357 445.09L202.072 447.134L68.7847 530.105L62.3197 534.129L69.257 530.989L210.393 467.096L213.997 465.465L210.923 467.954L87.4039 567.972L81.3393 572.883L87.9833 568.79L221.269 486.677L224.723 484.549L221.9 487.462L109.883 603.081L104.306 608.838L110.557 603.822L234.132 504.681L237.382 502.074L234.853 505.385L135.897 634.943L130.897 641.489L136.654 635.598L248.807 520.854L251.798 517.795L249.605 521.468L165.073 663.115L160.739 670.378L165.902 663.679L265.09 534.964L267.767 531.489L265.953 535.483L196.998 687.211L193.413 695.1L197.885 687.678L282.753 546.808L285.067 542.966L283.668 547.227L231.222 706.903L228.461 715.307L232.154 707.268L301.547 556.215L303.454 552.064L302.502 556.532L267.265 721.921L265.391 730.716L268.231 722.184L321.207 563.049L322.669 558.656L322.19 563.261L304.625 732.065L303.684 741.11L305.614 732.223L341.453 567.211L342.444 562.648L342.453 567.318L342.785 737.197L342.802 746.344L343.785 737.25L361.997 568.641L362.5 563.985L363.003 568.641L376 688.968V679.656L363.494 563.878H361.506L343.767 728.104L343.444 562.646L341.467 562.436L306.555 723.178L323.664 558.759L321.72 558.34L270.105 713.389L304.432 552.273L302.545 551.647L234.915 698.864L286.017 543.278L284.211 542.45L201.47 679.789L268.678 531.903L266.975 530.879L170.236 656.416L252.656 518.307L251.083 517.096L141.654 629.052L238.177 502.681L236.756 501.294L116.134 598.066L225.441 485.245L224.198 483.697L94.0479 563.879L214.627 466.242L213.585 464.554L75.722 526.964L205.885 445.938L205.065 444.133L61.4321 487.84L199.339 424.618L198.759 422.723L51.3964 447.063L195.079 402.58L194.753 400.625L45.7698 405.219L193.167 380.131L193.102 378.15L44.6403 362.914L193.631 357.585L193.827 355.613L48.0249 320.763L196.464 335.259L196.919 333.33L55.8712 279.378L201.629 313.467L202.331 311.613L68.0574 239.355L209.055 292.515L209.988 290.765L84.3965 201.269L218.638 272.697L219.783 271.077L104.64 165.656L230.244 254.295L231.579 252.825L128.487 133.013L243.71 237.566L245.211 236.265L155.587 103.789L258.847 222.748L260.488 221.629L185.548 78.3778L275.44 210.048L277.198 209.121L217.944 57.1188L293.256 199.646L295.106 198.918L252.322 40.2915L312.044 191.687L313.962 191.164L288.204 28.1148L331.539 186.283L333.503 185.968L325.097 20.7457L351.467 183.509L353.453 183.404L362.5 18.2789L371.547 183.404Z" fill="black"/>
<path d="M95.5563 540.805L141.188 569.514L95.5563 598.453L70.5938 651.027L45.6312 598.453L-0.000338522 569.514L45.6312 540.805L70.5938 488L95.5563 540.805Z" fill="#B9FF66"/>
<path d="M222.753 291.359L304.293 342.66L222.753 394.372L178.146 488.319L133.54 394.372L51.9995 342.66L133.54 291.359L178.146 197L222.753 291.359Z" fill="#191A23"/>
</svg>
